<svg width="84" height="84" viewBox="0 0 84 84" fill="none" xmlns="http://www.w3.org/2000/svg">
<g id="fullscreen">
<path id="Vector" d="M10.5 24.5V17.5C10.5 15.6435 11.2375 13.863 12.5503 12.5503C13.863 11.2375 15.6435 10.5 17.5 10.5H24.5" stroke="white" stroke-width="4" stroke-linecap="round" stroke-linejoin="round"/>
<path id="Vector_2" d="M59.5 10.5H66.5C68.3565 10.5 70.137 11.2375 71.4497 12.5503C72.7625 13.863 73.5 15.6435 73.5 17.5V24.5" stroke="white" stroke-width="4" stroke-linecap="round" stroke-linejoin="round"/>
<path id="Vector_3" d="M73.5 59.5V66.5C73.5 68.3565 72.7625 70.137 71.4497 71.4497C70.137 72.7625 68.3565 73.5 66.5 73.5H59.5" stroke="white" stroke-width="4" stroke-linecap="round" stroke-linejoin="round"/>
<path id="Vector_4" d="M24.5 73.5H17.5C15.6435 73.5 13.863 72.7625 12.5503 71.4497C11.2375 70.137 10.5 68.3565 10.5 66.5V59.5" stroke="white" stroke-width="4" stroke-linecap="round" stroke-linejoin="round"/>
<path id="Vector_5" d="M56 28H28C26.067 28 24.5 29.567 24.5 31.5V52.5C24.5 54.433 26.067 56 28 56H56C57.933 56 59.5 54.433 59.5 52.5V31.5C59.5 29.567 57.933 28 56 28Z" stroke="white" stroke-width="4" stroke-linecap="round" stroke-linejoin="round"/>
</g>
</svg>
