<svg width="127" height="43" viewBox="0 0 127 43" fill="none" xmlns="http://www.w3.org/2000/svg">
<path id="Vector 10" d="M13.578 10.1466C18.9502 9.31854 24.2445 7.52388 29.6003 6.50858C48.4424 2.9367 66.9704 0.433678 86.2068 1.11083C92.0039 1.3149 100.374 1.37665 106.06 3.66142C112.573 6.27834 116.347 13.0813 114.261 19.9931C112.078 27.2222 103.628 30.3365 97.3805 32.6669C87.4015 36.3894 76.9249 38.9366 66.3736 40.4373C51.0112 42.6222 34.703 42.5863 19.4043 39.8837C14.3281 38.9869 8.56799 37.7555 3.92081 35.3757C1.22878 33.9971 0.433612 32.1776 1.38679 29.3255C2.5102 25.964 3.95905 24.1108 6.8539 21.733C16.0534 14.1767 29.2764 10.7522 40.6343 8.4067C73.4339 1.63322 92.3723 1.88349 125.5 5" stroke="#379863" stroke-width="2" stroke-linecap="round"/>
</svg>
